<?xml version="1.0" encoding="utf-8"?>
<!-- Generator: Adobe Illustrator 16.0.3, SVG Export Plug-In . SVG Version: 6.00 Build 0)  -->
<!DOCTYPE svg PUBLIC "-//W3C//DTD SVG 1.1//EN" "http://www.w3.org/Graphics/SVG/1.1/DTD/svg11.dtd">
<svg version="1.1" id="Layer_2" xmlns="http://www.w3.org/2000/svg" xmlns:xlink="http://www.w3.org/1999/xlink" x="0px" y="0px"
	 width="64px" height="64px" viewBox="0 0 64 64" enable-background="new 0 0 64 64" xml:space="preserve">
<path fill="#A1ADB8" d="M16,12c0,1.1-0.9,2-2,2h-1c-1.1,0-2-0.9-2-2V4c0-1.1,0.9-2,2-2h1c1.1,0,2,0.9,2,2V12z"/>
<path fill="#A1ADB8" d="M53,12c0,1.1-0.9,2-2,2h-1c-1.1,0-2-0.9-2-2V4c0-1.1,0.9-2,2-2h1c1.1,0,2,0.9,2,2V12z"/>
<path fill="#A1ADB8" d="M60,8h-5v4c0,2.2-1.8,4-4,4h-1c-2.2,0-4-1.8-4-4V8H18v4c0,2.2-1.8,4-4,4h-1c-2.2,0-4-1.8-4-4V8H4
	c-1.1,0-2,0.9-2,2v49c0,1.1,0.9,2,2,2h56c1.1,0,2-0.9,2-2V10C62,8.9,61.1,8,60,8z M59,57c0,0.5-0.5,1-1,1H6c-0.5,0-1-0.5-1-1V21
	c0-0.5,0.5-1,1-1h52c0.5,0,1,0.5,1,1V57z"/>
<path fill="#A1ADB8" d="M32,24c-8.3,0-15,6.7-15,15c0,8.3,6.7,15,15,15c8.3,0,15-6.7,15-15C47,30.7,40.3,24,32,24z M41,41
	c0,0.5-0.5,1-1,1h-9c-0.5,0-1-0.5-1-1v-9c0-0.5,0.5-1,1-1h1c0.5,0,1,0.5,1,1v6c0,0.5,0.5,1,1,1h6c0.5,0,1,0.5,1,1V41z"/>
</svg>
